# xmcd
#
# Track frame offsets: 
#        150
#        23882
#        40077
#        60625
#        84440
#        102807
#        120655
#        147510
#        166485
#        189112
#        210272
#        229392
#        251742
#        272970
#
# Disc length: 3891 seconds
#
# Revision: 7
# Processed by: cddbd v1.5.2PL0 Copyright (c) Steve Scherf et al.
# Submitted via: ExactAudioCopyFreeDBPlugin 1.0
#
DISCID=be0f310e
DTITLE=Spooks - S.I.O.S.O.S.: Volume One
DYEAR=2000
DGENRE=Hip-Hop
TTITLE0=Other Script
TTITLE1=The Mission
TTITLE2=Things I've Seen
TTITLE3=They Don't Know
TTITLE4=I Got U
TTITLE5=Flesh Not Bone
TTITLE6=Sweet Revenge
TTITLE7=Deep Cutz
TTITLE8=Karma Hotel
TTITLE9=Safe House
TTITLE10=Something Fresh
TTITLE11=Swindley's Maracas
TTITLE12=B**** Blood
TTITLE13=Murder
EXTD=ID3G:   0
EXTT0=
EXTT1=
EXTT2=
EXTT3=
EXTT4=
EXTT5=
EXTT6=
EXTT7=
EXTT8=
EXTT9=
EXTT10=
EXTT11=
EXTT12=
EXTT13=
PLAYORDER=
